PathFileType	4	(X/Y/Z)	 s07c0202.trc
DataRate	CameraRate	NumFrames	NumMarkers	Units	OrigDataRate	OrigDataStartFrame	OrigNumFrames
200	200	7	48	mm	200	1751	2000
Frame#	Time	racr			lacr			c7			jug			rlel			rdr			llel			ldr			s2			lic			ric			lasi			rasi			rpsi			lpsi			rgt			lgt			rth1			rth2			rth3			rth4			rlfc			rmfc			rsh1			rsh2			rsh3			rsh4			rlmal			rcal			rtoe			rmt5			lth1			lth2			lth4			lth3			llfc			lmfc			lsh1			lsh2			lsh3			lsh4			llmal			lcal			ltoe			lmt5			SBIKE			LBIKE			RBIKE			
		X1	Y1	Z1	X2	Y2	Z2	X3	Y3	Z3	X4	Y4	Z4	X5	Y5	Z5	X6	Y6	Z6	X7	Y7	Z7	X8	Y8	Z8	X9	Y9	Z9	X10	Y10	Z10	X11	Y11	Z11	X12	Y12	Z12	X13	Y13	Z13	X14	Y14	Z14	X15	Y15	Z15	X16	Y16	Z16	X17	Y17	Z17	X18	Y18	Z18	X19	Y19	Z19	X20	Y20	Z20	X21	Y21	Z21	X22	Y22	Z22	X23	Y23	Z23	X24	Y24	Z24	X25	Y25	Z25	X26	Y26	Z26	X27	Y27	Z27	X28	Y28	Z28	X29	Y29	Z29	X30	Y30	Z30	X31	Y31	Z31	X32	Y32	Z32	X33	Y33	Z33	X34	Y34	Z34	X35	Y35	Z35	X36	Y36	Z36	X37	Y37	Z37	X38	Y38	Z38	X39	Y39	Z39	X40	Y40	Z40	X41	Y41	Z41	X42	Y42	Z42	X43	Y43	Z43	X44	Y44	Z44	X45	Y45	Z45	X46	Y46	Z46	X47	Y47	Z47	X48	Y48	Z48	
1751	8.7550	396.511044	1480.522813	-55.640224	393.825195	1466.020309	-350.653978	352.565136	1532.196227	-204.414867	339.642695	1387.214731	-203.042995	506.960236	1159.845806	22.709428	688.167648	926.175465	-51.158678	505.765108	1156.992727	-432.423467	700.616696	931.494738	-401.131482	-157.509276	1190.870017	-232.652532	-3.929555	1270.223615	-364.844992	-1.176113	1245.719043	-71.967290	38.117626	1196.602959	-341.660299	23.193359	1192.640421	-91.531670	-137.014634	1227.863067	-177.084587	-123.608762	1245.755159	-283.809071	-42.496138	1099.991737	-43.172707	-32.129829	1111.630586	-405.635580	92.014263	1005.186238	-37.755281	170.089984	965.995624	-47.488120	219.770017	896.354685	-49.802437	191.984685	993.248940	-60.768545	317.018368	796.224894	-84.620318	310.404427	781.272068	-186.496655	290.564140	655.119727	-58.744090	292.871305	567.851455	-79.578242	255.568457	489.145745	-73.976005	304.617671	569.236650	-117.853278	220.303480	355.568047	-73.478207	151.792476	316.063498	-101.986285	442.173816	304.994165	-119.971022	369.611226	267.554602	-50.098225	59.679990	1029.993955	-411.286125	144.250416	1004.350764	-411.538474	163.142334	1033.992240	-401.015867	205.552179	939.721158	-410.454847	335.144421	816.106935	-379.539940	326.128062	796.896149	-280.098051	231.482878	709.492570	-400.185802	185.034963	638.902328	-383.100220	106.662713	596.214755	-391.894238	189.957854	637.251651	-341.182497	3.724737	515.875009	-392.756596	-72.469018	530.799043	-359.765546	131.024977	325.138906	-356.992181	54.622152	360.392507	-420.681038	-259.942855	970.094933	-233.797306	-75.868728	83.380175	-438.449694	-82.787611	79.232807	-40.921200	
1752	8.7600	396.825748	1480.495008	-56.396293	393.161319	1465.702788	-351.562784	352.545264	1532.021703	-205.044356	339.594920	1387.178299	-203.579810	507.261738	1159.830618	22.414285	688.187596	925.888304	-51.209444	505.087252	1156.594775	-432.830586	700.425918	931.581444	-401.485055	-157.182643	1190.317966	-232.711680	-3.911018	1270.363548	-364.607102	-0.615989	1244.490879	-71.756770	38.400277	1196.831992	-341.597899	23.656762	1191.186535	-91.427303	-136.584581	1227.046888	-176.964523	-123.385487	1245.433349	-283.827839	-42.609887	1098.186469	-43.538926	-31.490257	1112.417017	-406.148865	90.243703	1000.038344	-37.730572	167.312615	958.865386	-47.447607	215.166137	888.000838	-49.809754	189.732485	985.552976	-61.029582	310.117637	786.329187	-84.317709	303.054948	770.965273	-185.583800	284.014939	645.334413	-58.562809	287.055482	558.157551	-79.255759	250.368827	479.202810	-73.917919	299.047650	559.653664	-117.547772	216.196384	345.160948	-73.566402	148.221788	305.598050	-102.149373	438.638846	295.465157	-119.852247	365.531380	257.355639	-50.761433	61.556994	1032.697372	-411.795184	146.695737	1008.919977	-411.925868	164.867596	1038.983025	-401.263586	209.432939	945.721283	-410.919786	341.555174	824.223990	-379.210223	332.484215	805.286862	-279.480811	237.909012	717.932073	-399.591179	191.146407	647.614955	-382.728732	112.425635	605.444792	-391.737968	195.894142	646.028961	-340.928008	8.824084	525.941556	-392.689715	-67.346681	541.471384	-359.561640	134.220468	334.011111	-356.994912	58.150971	369.996812	-420.540421	-259.947275	970.087669	-233.935251	-75.868200	83.359040	-438.443670	-82.813309	79.221565	-40.932005	
1753	8.7650	397.167769	1480.521610	-57.082876	392.580669	1465.429242	-352.519625	352.590884	1531.910420	-205.626209	339.655126	1387.183919	-204.077507	507.623150	1159.894200	22.119951	688.286184	925.660567	-51.312046	504.546990	1156.274215	-433.120707	700.270771	931.644790	-401.843521	-156.839269	1189.950828	-232.712987	-3.854302	1270.596082	-364.355173	-0.044367	1243.342107	-71.642870	38.743478	1197.146307	-341.508444	24.133250	1189.911176	-91.314209	-136.035758	1226.293665	-176.895761	-123.158489	1245.183006	-284.598564	-42.701865	1096.426197	-43.877838	-30.777360	1113.436915	-406.709519	88.273324	994.840515	-37.386177	164.339107	951.831452	-47.392726	210.663515	879.738861	-49.653699	187.403456	977.719543	-61.534276	302.956121	776.809654	-83.952209	295.545204	761.263670	-184.938046	277.050235	635.979037	-58.311358	280.950773	548.866470	-78.922994	244.692302	469.783649	-73.518981	293.102518	550.417494	-117.171400	211.645980	335.102619	-73.768913	144.171813	295.638044	-102.346525	435.790793	285.035135	-121.322479	361.433621	247.632900	-50.814451	63.341719	1035.423078	-412.206133	149.000202	1013.652330	-412.366251	166.504400	1044.003502	-401.539569	213.132752	951.684573	-411.357691	347.862502	832.631877	-378.898205	338.638746	813.821551	-279.172399	244.477101	726.223804	-399.182942	196.986873	656.510098	-382.222150	117.699602	614.204516	-390.964182	201.897322	654.773888	-340.601564	14.072171	535.618621	-392.573401	-62.143447	551.704020	-359.503160	138.068428	343.039310	-356.977362	62.183145	379.349308	-420.435864	-259.948296	970.094493	-234.053666	-75.853804	83.353279	-438.444992	-82.834157	79.282508	-40.943034	
1754	8.7700	397.549386	1480.600983	-57.811795	392.029929	1465.193948	-353.491235	352.666348	1531.858674	-206.204285	339.747380	1387.240463	-204.587636	508.009827	1159.959391	21.863277	688.422730	925.459868	-51.387893	503.962872	1155.936748	-433.472679	700.168499	931.802344	-402.371936	-156.478884	1189.659803	-232.719421	-3.371411	1270.875690	-364.358837	0.532929	1242.271637	-71.520039	39.078998	1197.555778	-341.369523	24.644378	1188.735873	-91.112726	-135.334417	1225.606117	-176.904825	-122.814659	1244.978052	-284.050487	-42.835871	1094.739327	-44.154849	-30.171575	1114.313847	-407.517150	86.176101	990.046038	-37.214412	161.169049	945.052365	-47.333802	205.753828	871.834874	-49.515621	184.575156	970.029175	-62.448355	295.704965	767.668485	-83.650790	287.545964	751.678380	-184.889151	269.607723	627.317853	-58.002314	274.326094	540.126205	-78.416375	238.542602	460.752257	-73.443996	286.802368	541.677344	-116.576217	206.475708	325.613251	-73.863936	139.663339	286.224204	-102.577727	431.229127	274.826334	-123.043440	356.842828	238.021581	-50.860955	65.082891	1038.172155	-412.692961	151.200836	1018.225795	-412.765726	168.069963	1048.918864	-401.698827	216.627209	957.627736	-411.666784	353.923060	840.978449	-378.402451	344.888314	822.926845	-277.991277	250.878721	734.572885	-398.770316	202.892194	665.283884	-381.832980	123.105884	623.311264	-390.980475	207.749080	663.502293	-340.172079	19.227899	545.413658	-392.515018	-56.677442	561.540403	-359.629147	142.537371	352.163213	-356.933475	66.873419	388.767278	-420.282789	-259.929836	970.079235	-234.153599	-75.860955	83.362620	-438.443476	-82.788281	79.230153	-40.929288	
1755	8.7750	397.963713	1480.762178	-58.410355	391.573155	1465.000542	-354.454158	352.780676	1531.901785	-206.760710	339.877175	1387.386595	-205.117333	508.446650	1160.086624	21.561924	688.547923	925.271741	-51.584000	503.533012	1155.728796	-433.758138	700.076081	932.011139	-402.935976	-156.013775	1189.410671	-232.718582	-3.188108	1271.270626	-364.013180	1.172386	1241.291985	-71.351487	39.479881	1197.981835	-341.167571	25.167865	1187.416278	-90.966168	-134.528734	1224.705549	-177.077403	-122.414840	1244.884919	-283.595832	-42.972077	1093.142801	-44.384445	-29.305906	1115.626742	-408.304475	83.935497	985.273816	-36.964101	157.825370	938.494586	-47.201842	200.747199	864.219182	-49.179057	181.705123	962.805410	-62.680015	288.393527	759.171535	-83.290751	279.934494	742.841684	-184.359993	261.766014	619.060758	-57.717538	267.288973	531.956784	-77.865254	231.966858	452.316332	-73.315806	280.372778	533.470538	-115.881929	201.328077	316.146968	-74.421016	134.720965	277.388965	-102.844496	426.442127	265.883747	-121.158703	351.760778	228.627446	-50.924376	66.796521	1040.873245	-412.987143	153.341416	1022.742456	-413.049027	169.564787	1053.740871	-401.950653	219.981509	963.424224	-411.879465	359.929640	849.476622	-377.859451	350.600103	831.476211	-277.208048	257.097358	742.980887	-398.276325	208.907121	673.750031	-381.353251	128.615677	632.533479	-390.628846	213.315798	672.328237	-339.622642	24.651906	554.697937	-392.560577	-51.642449	570.790192	-359.423531	147.587438	361.491111	-356.886613	71.988005	398.045109	-420.123189	-259.912561	970.081072	-234.276768	-75.855294	83.345169	-438.452720	-82.796135	79.226232	-40.937854	
1756	8.7800	398.405368	1480.902500	-58.999362	391.088350	1464.838448	-355.355578	352.908952	1531.986845	-207.354966	340.016109	1387.631522	-205.676955	508.887334	1160.323897	21.289679	688.558296	925.224852	-51.606778	503.077476	1155.531370	-434.056255	699.986482	932.283132	-403.580206	-155.583318	1189.226907	-232.691063	-2.930518	1271.634349	-363.686487	1.777511	1240.406491	-71.210763	39.898920	1198.424309	-340.938032	25.685098	1186.372738	-90.710234	-133.881112	1224.250189	-176.992324	-122.007334	1244.880162	-283.184060	-43.141787	1091.666828	-44.602844	-28.492339	1116.906396	-408.929902	81.577426	980.705839	-36.618578	154.355027	932.218336	-46.949239	195.438699	857.061568	-48.686279	178.407934	955.810343	-62.963437	280.673173	750.905724	-83.130272	272.401752	734.474544	-183.943107	253.530586	611.421145	-57.425708	259.043217	524.289205	-77.528007	225.036682	444.444457	-73.224739	273.851094	525.852939	-114.975448	195.630401	307.568374	-74.877203	129.372179	269.159753	-103.143224	421.265428	256.587296	-121.484941	346.144094	219.544599	-51.038037	68.496716	1043.566275	-413.385027	155.375431	1027.180282	-413.350876	170.957767	1058.474538	-402.147254	223.209980	969.246612	-412.033420	365.615789	857.988768	-377.292394	356.185041	840.713085	-277.043108	263.128551	751.449244	-397.719764	214.674505	682.382696	-380.853908	134.305913	641.371075	-390.375112	218.966750	681.099867	-339.130159	30.104762	563.779548	-392.511519	-46.486488	579.411479	-359.174171	153.192473	370.702693	-356.798058	77.525887	407.062780	-419.968474	-259.881150	970.098236	-234.364399	-75.865355	83.334573	-438.459546	-82.792682	79.251909	-40.923775	
1757	8.7850	398.891679	1481.114647	-59.525298	390.763030	1464.863217	-356.309856	353.080188	1532.133542	-207.910242	340.211678	1387.912966	-206.196281	509.315466	1160.628836	21.020432	688.594525	925.171726	-51.809864	502.653061	1155.447226	-434.323373	699.917287	932.544711	-404.196508	-155.101873	1189.155143	-232.647767	-2.584024	1272.129346	-363.302236	2.509110	1239.567188	-71.060333	40.310099	1198.893412	-340.705710	26.266255	1185.183749	-90.477803	-133.388574	1224.017072	-176.709057	-121.563985	1245.011303	-282.624391	-43.360372	1090.334092	-44.705892	-27.658095	1118.118538	-409.490692	79.031114	976.380095	-36.239164	150.698096	926.313091	-46.608449	190.384509	850.237616	-47.825798	175.886976	950.172043	-61.690943	273.015130	743.130621	-82.837332	264.863200	726.593882	-183.618689	245.184361	604.046231	-57.217461	251.393714	516.969161	-76.927125	217.737422	437.055229	-73.127737	266.894308	518.656332	-114.144086	189.555526	299.579562	-75.380070	123.643053	261.557924	-103.467813	415.464470	247.651405	-121.468197	340.085546	210.937430	-51.061082	70.166245	1046.176514	-413.605608	157.360074	1031.539701	-413.599627	172.325631	1063.212518	-402.256351	226.362307	974.927337	-412.067323	370.906905	866.593574	-376.337764	361.349537	849.737071	-274.880845	268.992876	759.953183	-397.201436	220.803641	690.841828	-380.313634	139.948667	650.106861	-390.059647	224.284918	690.026182	-338.552040	35.654213	572.314191	-392.387593	-41.292562	587.704523	-359.285026	159.616950	380.068247	-356.807577	83.339165	415.761843	-419.669739	-259.865038	970.099012	-234.389345	-75.865868	83.329390	-438.463274	-82.827888	79.307944	-40.954668	
